<svg xmlns="http://www.w3.org/2000/svg" width="21.875" height="25" viewBox="0 0 21.875 25">
  <path id="building" d="M6.25,7.227V5.273a.588.588,0,0,1,.586-.586H8.789a.588.588,0,0,1,.586.586V7.227a.588.588,0,0,1-.586.586H6.836A.588.588,0,0,1,6.25,7.227Zm6.836.586h1.953a.588.588,0,0,0,.586-.586V5.273a.588.588,0,0,0-.586-.586H13.086a.588.588,0,0,0-.586.586V7.227A.588.588,0,0,0,13.086,7.813ZM6.836,12.5H8.789a.588.588,0,0,0,.586-.586V9.961a.588.588,0,0,0-.586-.586H6.836a.588.588,0,0,0-.586.586v1.953A.588.588,0,0,0,6.836,12.5Zm6.25,0h1.953a.588.588,0,0,0,.586-.586V9.961a.588.588,0,0,0-.586-.586H13.086a.588.588,0,0,0-.586.586v1.953A.588.588,0,0,0,13.086,12.5ZM9.375,16.6V14.648a.588.588,0,0,0-.586-.586H6.836a.588.588,0,0,0-.586.586V16.6a.588.588,0,0,0,.586.586H8.789A.588.588,0,0,0,9.375,16.6Zm3.711.586h1.953a.588.588,0,0,0,.586-.586V14.648a.588.588,0,0,0-.586-.586H13.086a.588.588,0,0,0-.586.586V16.6A.588.588,0,0,0,13.086,17.188Zm8.789,6.055V25H0V23.242a.588.588,0,0,1,.586-.586h.952V1.172A1.169,1.169,0,0,1,2.71,0H19.165a1.169,1.169,0,0,1,1.172,1.172V22.656h.952A.588.588,0,0,1,21.875,23.242ZM3.882,22.607H9.375V19.336a.588.588,0,0,1,.586-.586h1.953a.588.588,0,0,1,.586.586v3.271h5.493V2.393L3.906,2.344Z"/>
</svg>
