<svg xmlns="http://www.w3.org/2000/svg" width="21.875" height="25" viewBox="0 0 21.875 25">
  <path id="calendar-check" d="M19.531,3.125H17.188V.586A.586.586,0,0,0,16.6,0H14.648a.586.586,0,0,0-.586.586V3.125H7.813V.586A.586.586,0,0,0,7.227,0H5.273a.586.586,0,0,0-.586.586V3.125H2.344A2.344,2.344,0,0,0,0,5.469V22.656A2.344,2.344,0,0,0,2.344,25H19.531a2.344,2.344,0,0,0,2.344-2.344V5.469A2.344,2.344,0,0,0,19.531,3.125Zm-.293,19.531H2.637a.293.293,0,0,1-.293-.293V7.813H19.531V22.363a.293.293,0,0,1-.293.293Zm-2.581-9.8L9.709,19.752a.586.586,0,0,1-.829,0l-3.667-3.7a.586.586,0,0,1,0-.829l1.109-1.1a.586.586,0,0,1,.829,0L9.309,16.3l5.423-5.38a.586.586,0,0,1,.829,0l1.1,1.109a.586.586,0,0,1,0,.829Z"/>
</svg>
