<svg xmlns="http://www.w3.org/2000/svg" width="70.7" height="80.8" viewBox="0 0 70.7 80.8">
  <path id="calendar-alt" d="M23.356,45.45H17.044a1.9,1.9,0,0,1-1.894-1.894V37.244a1.9,1.9,0,0,1,1.894-1.894h6.312a1.9,1.9,0,0,1,1.894,1.894v6.312A1.9,1.9,0,0,1,23.356,45.45ZM40.4,43.556V37.244a1.9,1.9,0,0,0-1.894-1.894H32.194A1.9,1.9,0,0,0,30.3,37.244v6.312a1.9,1.9,0,0,0,1.894,1.894h6.312A1.9,1.9,0,0,0,40.4,43.556Zm15.15,0V37.244a1.9,1.9,0,0,0-1.894-1.894H47.344a1.9,1.9,0,0,0-1.894,1.894v6.312a1.9,1.9,0,0,0,1.894,1.894h6.312A1.9,1.9,0,0,0,55.55,43.556ZM40.4,58.706V52.393A1.9,1.9,0,0,0,38.506,50.5H32.194A1.9,1.9,0,0,0,30.3,52.393v6.312A1.9,1.9,0,0,0,32.194,60.6h6.312A1.9,1.9,0,0,0,40.4,58.706Zm-15.15,0V52.393A1.9,1.9,0,0,0,23.356,50.5H17.044a1.9,1.9,0,0,0-1.894,1.894v6.312A1.9,1.9,0,0,0,17.044,60.6h6.312A1.9,1.9,0,0,0,25.25,58.706Zm30.3,0V52.393A1.9,1.9,0,0,0,53.656,50.5H47.344a1.9,1.9,0,0,0-1.894,1.894v6.312A1.9,1.9,0,0,0,47.344,60.6h6.312A1.9,1.9,0,0,0,55.55,58.706ZM70.7,17.675v55.55A7.577,7.577,0,0,1,63.125,80.8H7.575A7.577,7.577,0,0,1,0,73.225V17.675A7.577,7.577,0,0,1,7.575,10.1H15.15V1.894A1.9,1.9,0,0,1,17.044,0h6.312A1.9,1.9,0,0,1,25.25,1.894V10.1h20.2V1.894A1.9,1.9,0,0,1,47.344,0h6.312A1.9,1.9,0,0,1,55.55,1.894V10.1h7.575A7.577,7.577,0,0,1,70.7,17.675Zm-7.575,54.6V25.25H7.575V72.278a.95.95,0,0,0,.947.947H62.178A.95.95,0,0,0,63.125,72.278Z"/>
</svg>
