<svg id="company-shape--paths" xmlns="http://www.w3.org/2000/svg" width="424.766" height="94" viewBox="0 0 424.766 94">
  <path id="Pfad_11573" data-name="Pfad 11573" d="M74.8,88.76c4.521,0,9.044,9.044,9.044,9.044a18.108,18.108,0,0,1,0,25.606L74.8,132.455,65.758,123.4a18.095,18.095,0,0,1,0-25.606S70.275,88.758,74.8,88.76Z" transform="translate(-27.728 -38.455)" fill="#ffd730"/>
  <path id="Pfad_11574" data-name="Pfad 11574" d="M74.8,10l9.044,9.044a18.108,18.108,0,0,1,0,25.606L74.8,53.695,65.758,44.65a18.095,18.095,0,0,1,0-25.606Z" transform="translate(-27.728 -10)" fill="#ffd730"/>
  <path id="Pfad_11575" data-name="Pfad 11575" d="M131.895,75.585l-9.044,9.044a18.108,18.108,0,0,1-25.606,0L88.2,75.585l9.044-9.044a18.108,18.108,0,0,1,25.606,0Z" transform="translate(-37.754 -28.511)" fill="#ffd730"/>
  <path id="Pfad_11576" data-name="Pfad 11576" d="M52.915,75.585,43.87,84.629a18.108,18.108,0,0,1-25.606,0L9.22,75.585l9.044-9.044a18.108,18.108,0,0,1,25.606,0Z" transform="translate(-9.22 -28.511)" fill="#ffd730"/>
  <path id="Pfad_11577" data-name="Pfad 11577" d="M202.547,68.526h-10.66v-7.1a13,13,0,0,0-.339-3.883,1.475,1.475,0,0,0-1.507-.766,1.578,1.578,0,0,0-1.673.939,14.352,14.352,0,0,0-.351,4.049V80.8a13.342,13.342,0,0,0,.351,3.9,1.814,1.814,0,0,0,3.155,0,14.962,14.962,0,0,0,.364-4.286V75.233h10.66v1.6q0,6.387-.9,9.031a9.32,9.32,0,0,1-3.973,4.663,13.611,13.611,0,0,1-7.582,2.006,15.673,15.673,0,0,1-7.722-1.7,8.246,8.246,0,0,1-4.024-4.695,30.463,30.463,0,0,1-.99-9.025V65.135a54.391,54.391,0,0,1,.3-6.649,9.382,9.382,0,0,1,1.814-4.267,10.079,10.079,0,0,1,4.177-3.226,17.107,17.107,0,0,1,13.911.645,8.719,8.719,0,0,1,4.024,4.535,26.842,26.842,0,0,1,.964,8.45Z" transform="translate(-69.962 -24.385)" fill="#4d4d4d"/>
  <path id="Pfad_11578" data-name="Pfad 11578" d="M246.958,74.677q0,6.176-.287,8.75a9.8,9.8,0,0,1-5.966,7.958,15.049,15.049,0,0,1-6.074,1.143,15.457,15.457,0,0,1-5.908-1.079,9.862,9.862,0,0,1-6.119-7.914,88.135,88.135,0,0,1-.3-8.859V67.651q0-6.176.287-8.744a9.8,9.8,0,0,1,5.966-7.952,15.048,15.048,0,0,1,6.074-1.137,15.5,15.5,0,0,1,5.915,1.073,9.862,9.862,0,0,1,6.113,7.914,86.287,86.287,0,0,1,.3,8.859ZM236.3,61.206a12.64,12.64,0,0,0-.319-3.653,1.277,1.277,0,0,0-1.277-.8,1.456,1.456,0,0,0-1.277.639c-.294.428-.447,1.7-.447,3.832V80.387a19.02,19.02,0,0,0,.294,4.407,1.277,1.277,0,0,0,1.354.837,1.316,1.316,0,0,0,1.392-.964,20.158,20.158,0,0,0,.307-4.586Z" transform="translate(-86.199 -24.384)" fill="#4d4d4d"/>
  <path id="Pfad_11579" data-name="Pfad 11579" d="M300.021,51.156V92.142h-9.338V64.46l-3.711,27.676h-6.592L276.465,65.1V92.136H267.14V51.156h13.79q.639,3.692,1.277,8.712l1.514,10.424,2.446-19.162Z" transform="translate(-102.402 -24.86)" fill="#4d4d4d"/>
  <path id="Pfad_11580" data-name="Pfad 11580" d="M325.32,51.162h10.737a25.012,25.012,0,0,1,6.694.683,7.441,7.441,0,0,1,3.519,1.974,6.783,6.783,0,0,1,1.6,3.123,27.86,27.86,0,0,1,.415,5.685V66.2a15.207,15.207,0,0,1-.8,5.748,5.582,5.582,0,0,1-2.976,2.74,14.122,14.122,0,0,1-5.659.958h-2.868V92.155H325.32Zm10.66,7.026V68.606h.786a2.465,2.465,0,0,0,2.038-.722,5.348,5.348,0,0,0,.568-3v-3.34a4.054,4.054,0,0,0-.639-2.734,4.168,4.168,0,0,0-2.759-.632Z" transform="translate(-123.422 -24.866)" fill="#4d4d4d"/>
  <path id="Pfad_11581" data-name="Pfad 11581" d="M381.108,51.17,387.2,92.156H376.3l-.568-7.371H371.9l-.639,7.371H360.26L365.7,51.17Zm-5.653,26.353q-.8-6.968-1.622-17.245-1.629,11.778-2.044,17.245Z" transform="translate(-136.045 -24.874)" fill="#4d4d4d"/>
  <path id="Pfad_11582" data-name="Pfad 11582" d="M429.051,51.17V92.156h-9.344l-5.544-18.631V92.156H405.22V51.17h8.942l5.978,18.453V51.17Z" transform="translate(-152.288 -24.874)" fill="#4d4d4d"/>
  <path id="Pfad_11583" data-name="Pfad 11583" d="M470.56,51.17l-7.767,26.149V92.156h-9.875V77.319l-7.5-26.149h9.792q2.3,12,2.593,16.147.881-6.553,2.964-16.147Z" transform="translate(-166.812 -24.874)" fill="#4d4d4d"/>
  <path id="Pfad_11584" data-name="Pfad 11584" d="M525.767,51.17V92.156h-9.344l-5.544-18.631V92.156H502V51.17h8.878l5.972,18.453V51.17Z" transform="translate(-187.253 -24.874)" fill="#4d4d4d"/>
  <path id="Pfad_11585" data-name="Pfad 11585" d="M562.961,51.17l6.093,40.986H558.2l-.575-7.371h-3.832l-.639,7.371H542.12l5.435-40.986Zm-5.653,26.353q-.8-6.968-1.622-17.245-1.629,11.778-2.044,17.245Z" transform="translate(-201.748 -24.874)" fill="#4d4d4d"/>
  <path id="Pfad_11586" data-name="Pfad 11586" d="M620.008,51.156V92.142h-9.332V64.46l-3.711,27.676h-6.6L596.452,65.1V92.136H587.12V51.156h13.8q.639,3.692,1.277,8.712l1.514,10.424,2.446-19.162Z" transform="translate(-218.005 -24.86)" fill="#4d4d4d"/>
  <path id="Pfad_11587" data-name="Pfad 11587" d="M645.31,51.17h17.776v8.195H655.97v7.78h6.655v7.792H655.97v9.019h7.824v8.2H645.31Z" transform="translate(-239.028 -24.874)" fill="#4d4d4d"/>
  <path id="Pfad_11588" data-name="Pfad 11588" d="M192.107,140.416a3.628,3.628,0,0,1-1.6,3.047,7.2,7.2,0,0,1-4.337,1.175,12.135,12.135,0,0,1-2.759-.281,13.9,13.9,0,0,1-2.2-.7v-3.047h.358a7.46,7.46,0,0,0,2.28,1.277,7.364,7.364,0,0,0,2.427.434,6.711,6.711,0,0,0,.786-.051,3.194,3.194,0,0,0,.8-.166,1.968,1.968,0,0,0,.639-.383.888.888,0,0,0,.243-.683.907.907,0,0,0-.351-.722,2.466,2.466,0,0,0-1.041-.466c-.479-.115-.984-.217-1.52-.319a11.2,11.2,0,0,1-1.5-.383,4.682,4.682,0,0,1-2.319-1.412,3.468,3.468,0,0,1-.7-2.21,3.4,3.4,0,0,1,1.6-2.9,6.975,6.975,0,0,1,4.1-1.118,12.525,12.525,0,0,1,2.491.243,11.675,11.675,0,0,1,2.127.607v2.932h-.351a6.649,6.649,0,0,0-1.916-1.028,6.387,6.387,0,0,0-2.28-.415,7.03,7.03,0,0,0-.818.051,3.27,3.27,0,0,0-.779.211,1.559,1.559,0,0,0-.575.39.85.85,0,0,0-.243.594.881.881,0,0,0,.39.773,4.317,4.317,0,0,0,1.45.485l1.348.287a13.412,13.412,0,0,1,1.392.37,4.669,4.669,0,0,1,2.165,1.277A3.193,3.193,0,0,1,192.107,140.416Z" transform="translate(-71.357 -53.896)" fill="gray"/>
  <path id="Pfad_11589" data-name="Pfad 11589" d="M224.708,144.524h-9.2v-12.7H218.8v10.219h5.908Z" transform="translate(-83.749 -54.011)" fill="gray"/>
  <path id="Pfad_11590" data-name="Pfad 11590" d="M258.7,138.024a6.6,6.6,0,0,1-1.744,4.822,7.4,7.4,0,0,1-9.651,0,7.569,7.569,0,0,1,0-9.664,7.409,7.409,0,0,1,9.638,0,6.6,6.6,0,0,1,1.756,4.841Zm-4.356,3.194a3.762,3.762,0,0,0,.709-1.367,6.643,6.643,0,0,0,.23-1.852,6.387,6.387,0,0,0-.262-1.916,3.775,3.775,0,0,0-.7-1.277,2.6,2.6,0,0,0-1-.741,3.193,3.193,0,0,0-1.188-.23,3.123,3.123,0,0,0-1.175.217,2.823,2.823,0,0,0-1.016.735,3.577,3.577,0,0,0-.7,1.322,6.388,6.388,0,0,0-.268,1.948,6.3,6.3,0,0,0,.255,1.916,3.915,3.915,0,0,0,.69,1.277,2.619,2.619,0,0,0,1.028.754,3.123,3.123,0,0,0,2.414,0,2.67,2.67,0,0,0,.977-.766Z" transform="translate(-94.606 -53.86)" fill="gray"/>
  <path id="Pfad_11591" data-name="Pfad 11591" d="M294.618,143.641a17.973,17.973,0,0,1-2.267.639,12.545,12.545,0,0,1-2.817.326,7.11,7.11,0,0,1-5.11-1.763,7.2,7.2,0,0,1,0-9.638,7.1,7.1,0,0,1,5.18-1.814,12.092,12.092,0,0,1,2.4.23,10.661,10.661,0,0,1,2.555.894V135.5h-.37l-.7-.511a9.009,9.009,0,0,0-.888-.556,5.952,5.952,0,0,0-1.163-.473,5.046,5.046,0,0,0-1.405-.2,4.765,4.765,0,0,0-1.584.255,3.737,3.737,0,0,0-1.277.786,3.609,3.609,0,0,0-.849,1.277A4.854,4.854,0,0,0,286,137.9a4.362,4.362,0,0,0,1.118,3.226,4.471,4.471,0,0,0,3.315,1.118h.83v-2.491H288.71v-2.4h5.883Z" transform="translate(-107.979 -53.856)" fill="gray"/>
  <path id="Pfad_11592" data-name="Pfad 11592" d="M330.732,144.524h-3.4l-.888-2.555h-4.714l-.888,2.555H317.53l4.707-12.7h3.788Zm-5.071-4.925-1.571-4.548-1.565,4.548Z" transform="translate(-120.607 -54.011)" fill="gray"/>
  <path id="Pfad_11593" data-name="Pfad 11593" d="M366.362,144.524h-3.194l-5.4-8.718v8.718H354.75v-12.7h3.928l4.65,7.275V131.82h3.008Z" transform="translate(-134.054 -54.011)" fill="gray"/>
  <path id="Pfad_11594" data-name="Pfad 11594" d="M426.277,144.524h-3.289v-5.6h-4.848v5.6H414.85v-12.7h3.289v4.65h4.848v-4.65h3.289Z" transform="translate(-155.767 -54.011)" fill="gray"/>
  <path id="Pfad_11595" data-name="Pfad 11595" d="M460.779,144.524H451.55v-12.7h9.229v2.459h-5.953v2.191h5.525v2.453h-5.525v3.142h5.953Z" transform="translate(-169.026 -54.011)" fill="gray"/>
  <path id="Pfad_11596" data-name="Pfad 11596" d="M496.289,144.524H492.3l-3.468-4.663h-1.527v4.663H484v-12.7h5.512a12.244,12.244,0,0,1,1.916.128,4.081,4.081,0,0,1,1.52.556,3.27,3.27,0,0,1,1.143,1.1,3.149,3.149,0,0,1,.428,1.7,3.769,3.769,0,0,1-.639,2.293,4.867,4.867,0,0,1-1.871,1.475Zm-5.11-8.814a1.629,1.629,0,0,0-.192-.818,1.277,1.277,0,0,0-.677-.537,2.555,2.555,0,0,0-.779-.172H487.3V137.6h1.016a9.412,9.412,0,0,0,1.316-.077,1.916,1.916,0,0,0,.888-.345,1.788,1.788,0,0,0,.5-.588,1.993,1.993,0,0,0,.134-.881Z" transform="translate(-180.75 -54.011)" fill="gray"/>
  <path id="Pfad_11597" data-name="Pfad 11597" d="M528.437,144.524H519.22v-12.7h9.217v2.459h-5.953v2.191h5.538v2.453H522.5v3.142h5.953Z" transform="translate(-193.474 -54.011)" fill="gray"/>
</svg>
