<svg xmlns="http://www.w3.org/2000/svg" width="80.8" height="80.003" viewBox="0 0 80.8 80.003">
  <path id="futbol" d="M78.821,35.646A40.518,40.518,0,0,0,27.929,9.968,39.914,39.914,0,0,0,1.994,60.356,40.518,40.518,0,0,0,52.886,86.035,39.914,39.914,0,0,0,78.821,35.646ZM66.685,66.889l-8.5,1.032L51.062,58.1l3.975-12.129L66.619,42.4l6.337,5.871a31.828,31.828,0,0,1-3.535,14.388,31.307,31.307,0,0,1-2.737,4.226Zm0-37.969L64.99,37.485,53.473,41.033l-10.459-7.5v-11.9L50.736,17.4A32.461,32.461,0,0,1,66.685,28.92ZM30.128,17.42l7.673,4.21v11.9l-10.459,7.5-11.5-3.549L14.2,29.017a32.214,32.214,0,0,1,15.932-11.6Zm-7.477,50.5L14,66.873a32.075,32.075,0,0,1-6.158-18.6L14.2,42.4l11.583,3.581,3.959,11.984-7.086,9.952ZM30.5,78.728,26.854,70.97l7.1-9.952h12.8l7.217,9.952-3.649,7.758A32.794,32.794,0,0,1,30.5,78.728Z" transform="translate(-0.008 -8)"/>
</svg>
