<svg xmlns="http://www.w3.org/2000/svg" width="94.141" height="94" viewBox="0 0 94.141 94">
  <g id="Gruppe_16102" data-name="Gruppe 16102" transform="translate(-1044 -1992)">
    <path id="Pfad_11599" data-name="Pfad 11599" d="M74.8,88.76c4.521,0,9.044,9.044,9.044,9.044a18.108,18.108,0,0,1,0,25.606L74.8,132.455,65.758,123.4a18.095,18.095,0,0,1,0-25.606S70.275,88.758,74.8,88.76Z" transform="translate(1016.272 1953.545)" fill="#1d1d1d"/>
    <path id="Pfad_11600" data-name="Pfad 11600" d="M74.8,10l9.044,9.044a18.108,18.108,0,0,1,0,25.606L74.8,53.695,65.758,44.65a18.095,18.095,0,0,1,0-25.606Z" transform="translate(1016.272 1982)" fill="#1d1d1d"/>
    <path id="Pfad_11601" data-name="Pfad 11601" d="M131.895,75.585l-9.044,9.044a18.108,18.108,0,0,1-25.606,0L88.2,75.585l9.044-9.044a18.108,18.108,0,0,1,25.606,0Z" transform="translate(1006.246 1963.489)" fill="#1d1d1d"/>
    <path id="Pfad_11602" data-name="Pfad 11602" d="M52.915,75.585,43.87,84.629a18.108,18.108,0,0,1-25.606,0L9.22,75.585l9.044-9.044a18.108,18.108,0,0,1,25.606,0Z" transform="translate(1034.78 1963.489)" fill="#1d1d1d"/>
  </g>
</svg>
