<svg id="Gruppe_16100" data-name="Gruppe 16100" xmlns="http://www.w3.org/2000/svg" width="348.304" height="306.756" viewBox="0 0 348.304 306.756">
  <path id="blob_1_" data-name="blob (1)" d="M265.335,37.834c15.972,53.414-20.685,119.657-78.812,163.645C128.135,245.468,48.538,267.462-4.614,233.423S-84.473,109.315-60.385,44.9C-36.558-19.245,37.8-57.734,109.283-56.687,180.763-55.9,249.363-15.579,265.335,37.834Z" transform="translate(79.217 56.708)" fill="gold"/>
  <path id="blob_1_2" data-name="blob (1)" d="M265.335,20.408c15.972,43.568-20.685,97.6-78.812,133.481-58.389,35.88-137.986,53.82-191.138,26.055S-84.473,78.712-60.385,26.174C-36.558-26.15,37.8-57.545,109.283-56.691,180.763-56.05,249.363-23.161,265.335,20.408Z" transform="translate(69.308 76.525)" fill="gold" opacity="0.17"/>
  <text id="Join_us._Apply_now_" data-name="Join us.
 Apply 
  now!" transform="translate(75.606 107.878)" fill="#fff" font-size="58" font-family="Ubuntu-Bold, Ubuntu" font-weight="700"><tspan x="0" y="0">Join </tspan><tspan y="0" fill="#022c43">us.</tspan><tspan fill="#022c43"><tspan x="0" y="67" xml:space="preserve"> Apply </tspan><tspan x="0" y="134" xml:space="preserve">  now!</tspan></tspan></text>
</svg>
