<svg xmlns="http://www.w3.org/2000/svg" width="32.143" height="25" viewBox="0 0 32.143 25">
  <path id="map" d="M31.251,32a.9.9,0,0,0-.333.065l-9.489,3.507h0l-9.6-3.388A3.576,3.576,0,0,0,9.6,32.175L1.123,35.122A1.786,1.786,0,0,0,0,36.78V56.106a.891.891,0,0,0,1.225.829l9.489-3.507,9.6,3.388a3.57,3.57,0,0,0,2.235.008l8.473-2.947a1.785,1.785,0,0,0,1.123-1.658V32.894A.894.894,0,0,0,31.251,32ZM12.5,35.26l7.143,2.522V53.74L12.5,51.218ZM2.679,53.543V37.417l7.143-2.485V50.9l-.036.013Zm26.786-1.96-7.143,2.485V38.1l.036-.013,7.107-2.627Z" transform="translate(0 -32)"/>
</svg>
